<svg width="810" height="429" viewBox="0 0 810 429" fill="none" xmlns="http://www.w3.org/2000/svg">
<path d="M107.008 188.928H143.616L118.272 322.047C115.2 337.919 112.896 355.839 112.384 370.687H78.5919L80.3839 350.463H79.8719C68.864 367.103 53.504 373.503 38.656 373.503C17.408 373.503 0 356.607 0 326.143C0 282.624 31.488 242.432 78.8479 242.432C83.9679 242.432 90.6239 243.456 95.9999 245.504L107.008 188.928ZM84.2239 308.479L90.8799 274.944C87.8079 272.384 82.1759 270.592 76.2879 270.592C54.016 270.592 38.4 296.191 38.4 320.255C38.4 335.359 45.056 343.807 55.552 343.807C66.304 343.807 79.3599 332.543 84.2239 308.479Z" fill="#CB8A86"/>
<path d="M254.61 370.687H220.818C221.074 363.263 221.842 354.815 222.354 345.855H221.842C210.322 366.591 194.194 373.503 179.602 373.503C157.074 373.503 141.714 356.095 141.714 329.983C141.714 287.744 169.874 242.688 231.314 242.688C246.418 242.688 262.29 245.504 272.786 248.832L259.73 314.367C256.658 330.495 254.098 355.071 254.61 370.687ZM225.682 300.543L231.314 271.616C228.498 271.104 225.17 270.592 221.33 270.592C197.522 270.592 180.114 299.775 180.114 323.071C180.114 335.359 184.978 343.807 195.218 343.807C206.226 343.807 219.794 331.263 225.682 300.543Z" fill="#CB8A86"/>
<path d="M274.76 363.519L283.72 337.663C290.888 341.247 304.2 346.367 316.232 346.367C326.728 346.367 332.104 341.247 332.104 335.103C332.104 328.959 328.008 324.607 316.488 318.975C302.152 311.807 290.12 301.311 290.12 285.696C290.12 259.584 312.904 242.432 345.16 242.432C359.752 242.432 371.272 245.504 377.416 248.832L368.456 274.944C363.336 272.64 354.376 269.568 343.624 269.568C333.64 269.568 327.24 273.664 327.24 280.576C327.24 285.695 332.36 290.047 342.344 294.911C356.168 301.823 370.504 311.807 370.504 329.215C370.504 357.887 346.184 373.503 312.904 373.247C297.032 372.991 282.184 368.895 274.76 363.519Z" fill="#CB8A86"/>
<path d="M421.196 370.687H384.332L418.892 188.928H455.756L441.676 261.632H442.188C452.684 250.112 465.74 242.688 482.124 242.688C501.58 242.688 513.612 254.976 513.612 276.48C513.612 282.368 512.588 291.839 511.308 299.007L497.74 370.687H460.876L473.932 302.079C474.956 297.215 475.468 291.839 475.468 286.72C475.468 278.272 472.14 272.384 462.924 272.384C449.868 272.384 436.812 288.256 432.204 313.343L421.196 370.687Z" fill="#CB8A86"/>
<path d="M564.166 370.687H527.302L551.11 245.504H587.974L564.166 370.687Z" fill="#CB8A86"/>
<path d="M634.732 370.687H598.124L616.556 273.408H600.172L605.548 245.248H621.932L622.956 238.848C625.516 224 631.404 208.384 643.948 197.888C653.932 189.44 667.244 186.112 679.532 186.112C688.492 186.112 695.148 187.392 698.988 189.184L692.588 218.368C689.516 217.088 685.675 216.32 680.811 216.32C668.779 216.32 661.612 226.56 659.308 239.104L658.028 245.248H682.859L677.484 273.408H652.908L634.732 370.687Z" fill="#CB8A86"/>
<path d="M686.178 245.504H724.833L732.513 300.031C734.305 313.087 735.585 322.047 736.609 329.983H737.121C739.938 322.303 742.753 314.367 748.129 300.799L770.913 245.504H809.825L765.025 335.615C748.385 368.895 733.537 391.423 716.897 407.039C702.305 420.863 684.897 427.263 676.706 428.543L668.513 396.799C674.401 395.007 682.594 391.935 689.761 387.071C698.209 381.183 705.378 373.759 710.241 365.311C711.266 363.263 711.265 361.727 710.753 359.167L686.178 245.504Z" fill="#CB8A86"/>
<path d="M559.695 89.1654C550.471 70.1736 523.49 28.0975 489.304 11.6837M526.609 121.008C509.014 94.7648 456.971 37.5783 389.608 18.8256M486.398 135.678C471.73 122.971 435.116 94.553 405.958 82.4948M582.643 154.413L621.738 159.547L594.168 187.753L600.159 223.009L562.76 204.845L533.271 227.506L538.404 188.399L510.198 160.829L547.374 160.406L565.538 123.006L582.643 154.413Z" stroke="#CB8A86" stroke-width="21.9088" stroke-linecap="round" stroke-linejoin="round"/>
</svg>
